# Blender 3.5.1
# www.blender.org
mtllib open_top.mtl
o box.outer
v 0.500000 0.000016 -0.500000
v 0.500000 0.000016 0.500000
v -0.500000 0.000016 0.500000
v -0.500000 0.000016 -0.500000
v 0.500000 0.900016 -0.499999
v 0.499999 0.900016 0.500000
v -0.500000 0.900016 0.500000
v -0.500000 0.900016 -0.500000
vn -0.0000 -1.0000 -0.0000
vn -0.0000 -0.0000 1.0000
vn -1.0000 -0.0000 -0.0000
vn -0.0000 -0.0000 -1.0000
s 0
usemtl diffuse.red
f 2//2 6//2 7//2 3//2
usemtl diffuse.green
f 5//4 1//4 4//4 8//4
usemtl diffuse.white
f 1//1 2//1 3//1 4//1
f 3//3 7//3 8//3 4//3
